<svg width="512" height="512" viewBox="0 0 512 512" fill="none" xmlns="http://www.w3.org/2000/svg">
<circle cx="256" cy="256" r="256" fill="black"/>
<path d="M339.394 118.527C350.014 113.21 362.41 121.375 361.708 133.225L350.718 318.653C350.016 330.502 336.741 337.149 326.824 330.616L171.633 228.391C161.716 221.858 162.594 207.046 173.213 201.729L339.394 118.527Z" fill="white"/>
<path d="M155.654 319.016C144.94 324.139 132.694 315.75 133.611 303.915L137.138 258.415C138.056 246.58 151.449 240.175 161.246 246.887L198.912 272.69C208.709 279.402 207.562 294.195 196.847 299.319L155.654 319.016Z" fill="white"/>
<path d="M234.115 415.797C223.447 421.016 211.126 412.737 211.937 400.894L217.866 314.324C218.677 302.481 232.012 295.957 241.869 302.58L313.924 350.997C323.781 357.62 322.767 372.423 312.099 377.643L234.115 415.797Z" fill="white"/>
</svg>
