<svg width="300" height="235" viewBox="0 0 224 235" fill="none" xmlns="http://www.w3.org/2000/svg">
    <path
        d="M78 169.5C78 174.747 73.7467 179 68.5 179C63.2533 179 59 174.747 59 169.5C59 164.253 63.2533 160 68.5 160C73.7467 160 78 164.253 78 169.5Z"
        fill="black" />
    <path
        d="M161.404 156.987C144.359 178.256 123.368 193.026 103.231 199.729C83.088 206.433 63.8684 205.05 50.2542 194.139C36.6399 183.229 31.1027 164.772 33.2581 143.653C35.413 122.539 45.2559 98.835 62.3008 77.566C79.3457 56.297 100.336 41.5265 120.474 34.8239C140.616 28.1193 159.836 29.5028 173.45 40.4132C187.064 51.3236 192.602 69.7802 190.446 90.8998C188.291 112.013 178.448 135.718 161.404 156.987Z"
        stroke="black" />
    <path
        d="M114.532 151.584C106.878 161.135 97.4592 167.757 88.4404 170.759C79.4159 173.763 70.8608 173.126 64.8218 168.286C58.7828 163.447 56.2973 155.236 57.263 145.774C58.2281 136.317 62.6397 125.682 70.2939 116.131C77.9481 106.58 87.3665 99.9579 96.3853 96.956C105.41 93.9522 113.965 94.5893 120.004 99.4289C126.043 104.269 128.528 112.479 127.563 121.942C126.598 131.398 122.186 142.033 114.532 151.584Z"
        stroke="black" />
</svg>