<svg width="27" height="38" viewBox="0 0 27 38" fill="none" xmlns="http://www.w3.org/2000/svg">
<path d="M24.3562 0.204719C25.6128 -0.452116 27.0797 0.556644 26.9966 2.02049L25.6962 24.9273C25.6131 26.3912 24.0423 27.2122 22.8688 26.4052L4.50495 13.7768C3.33142 12.9698 3.4353 11.14 4.69193 10.4832L24.3562 0.204719Z" fill="white"/>
<path d="M2.61415 24.9722C1.34629 25.6051 -0.102814 24.5688 0.00575077 23.1067L0.42314 17.4858C0.531704 16.0238 2.11652 15.2326 3.27581 16.0617L7.73282 19.2493C8.8921 20.0784 8.7564 21.906 7.48855 22.5389L2.61415 24.9722Z" fill="white"/>
<path d="M11.8985 36.928C10.6361 37.5728 9.17814 36.5501 9.27411 35.0871L9.97568 24.3925C10.0717 22.9296 11.6496 22.1236 12.816 22.9418L21.3423 28.923C22.5087 29.7412 22.3887 31.5699 21.1264 32.2147L11.8985 36.928Z" fill="white"/>
</svg>
