<svg width="128" height="27" viewBox="0 0 128 27" fill="none" xmlns="http://www.w3.org/2000/svg">
    <path
        d="M122.155 20.32C118.315 20.32 116.131 18.808 116.131 16.048V15.976H118.723V16.168C118.723 17.728 119.659 18.232 122.155 18.232C124.483 18.232 125.179 17.752 125.179 16.696C125.179 15.712 124.603 15.4 122.899 15.16L119.635 14.728C117.379 14.44 116.011 13.48 116.011 11.488C116.011 9.39999 117.907 7.91199 121.579 7.91199C125.227 7.91199 127.435 9.37599 127.435 12.208V12.28H124.867V12.136C124.867 10.72 124.147 9.97599 121.507 9.97599C119.323 9.97599 118.555 10.456 118.555 11.584C118.555 12.52 119.035 12.856 120.835 13.096L123.595 13.48C126.427 13.84 127.723 14.8 127.723 16.768C127.723 19 125.515 20.32 122.155 20.32Z"
        fill="white" />
    <path
        d="M103.75 20.08H101.374V3.99998H103.966V11.392H104.11C104.59 9.37598 106.174 7.91198 109.03 7.91198C112.702 7.91198 114.718 10.408 114.718 14.128C114.718 17.8 112.678 20.32 108.886 20.32C106.174 20.32 104.422 19.024 103.918 16.648H103.75V20.08ZM103.966 14.248C103.966 16.744 105.502 17.944 108.07 17.944C110.686 17.944 112.126 16.984 112.126 14.128C112.126 11.248 110.662 10.264 108.118 10.264C105.43 10.264 103.966 11.512 103.966 14.056V14.248Z"
        fill="white" />
    <path
        d="M91.2843 20.32C88.8123 20.32 87.2523 19.168 87.2523 17.2C87.2523 15.352 88.7403 14.392 91.0923 14.128L96.5163 13.552V12.856C96.5163 10.888 95.6523 10.192 93.3723 10.192C91.1643 10.192 90.0843 10.912 90.0843 12.664V12.76H87.5163V12.664C87.5163 9.95199 89.7723 7.91199 93.5643 7.91199C97.3563 7.91199 99.0603 9.97599 99.0603 12.832V20.08H96.6843V17.104H96.5163C95.8923 19.12 93.9963 20.32 91.2843 20.32ZM89.8443 17.032C89.8443 17.992 90.4923 18.448 91.9803 18.448C94.6923 18.448 96.5163 17.44 96.5163 15.088L91.8363 15.616C90.4923 15.784 89.8443 16.096 89.8443 17.032Z"
        fill="white" />
    <path d="M85.3801 20.08H82.7881V3.99998H85.3801V20.08Z" fill="white" />
    <path
        d="M72.9035 20.32C69.1355 20.32 67.0475 17.8 67.0475 14.128C67.0475 10.408 69.1115 7.91198 72.7355 7.91198C75.5675 7.91198 77.1755 9.37598 77.6555 11.392H77.7995V3.99998H80.3915V20.08H78.0155V16.648H77.8475C77.3435 19.024 75.5915 20.32 72.9035 20.32ZM69.6635 14.128C69.6635 16.984 71.1275 17.944 73.6955 17.944C76.2395 17.944 77.7995 16.744 77.7995 14.248V14.056C77.7995 11.512 76.3115 10.264 73.6475 10.264C71.1515 10.264 69.6635 11.248 69.6635 14.128Z"
        fill="white" />
    <path
        d="M59.0036 20.32C57.7876 20.32 56.7156 20.08 55.7876 19.6C54.8756 19.104 54.1556 18.416 53.6276 17.536C53.1156 16.64 52.8596 15.584 52.8596 14.368C52.8596 13.552 52.9556 12.832 53.1476 12.208C53.3556 11.568 53.6436 11 54.0116 10.504C54.3956 9.99198 54.8436 9.55198 55.3556 9.18398H52.3076V7.14398H58.1396V9.08798C57.3556 9.48798 56.6996 10.128 56.1716 11.008C55.6436 11.872 55.3796 12.936 55.3796 14.2C55.3796 15.432 55.6836 16.416 56.2916 17.152C56.8996 17.888 57.8116 18.256 59.0276 18.256C59.8436 18.256 60.5236 18.096 61.0676 17.776C61.6116 17.44 62.0196 16.968 62.2916 16.36C62.5636 15.736 62.6996 15.008 62.6996 14.176C62.6996 13.408 62.5716 12.688 62.3156 12.016C62.0756 11.328 61.7476 10.736 61.3316 10.24C60.9156 9.72798 60.4356 9.34398 59.8916 9.08798V7.14398H65.7476V9.18398H62.7236C63.2516 9.58398 63.6996 10.04 64.0676 10.552C64.4356 11.064 64.7156 11.632 64.9076 12.256C65.0996 12.88 65.1956 13.568 65.1956 14.32C65.1956 15.552 64.9476 16.616 64.4516 17.512C63.9556 18.408 63.2436 19.104 62.3156 19.6C61.3876 20.08 60.2836 20.32 59.0036 20.32Z"
        fill="white" />
    <path
        d="M40.5207 20.08H37.9287V3.99998H40.5207V11.8H40.6647C41.0727 9.78398 42.5367 7.91198 45.5847 7.91198C48.8727 7.91198 50.4807 10.072 50.4807 12.976V20.08H47.9127V13.6C47.9127 11.2 46.8327 10.24 44.3607 10.24C41.5287 10.24 40.5207 11.776 40.5207 14.296V20.08Z"
        fill="white" />
    <path
        d="M35.528 20.08H32.936V7.83998H29V5.99198H29.768C31.544 5.99198 32.552 5.53598 33.248 3.99998H35.528V20.08Z"
        fill="white" />
    <g clip-path="url(#clip0_742_31)">
        <path
            d="M17.9766 0.14865C18.9041 -0.328289 19.9868 0.404189 19.9254 1.46711L18.9656 18.1001C18.9042 19.1631 17.7449 19.7592 16.8788 19.1733L3.32501 10.0035C2.45886 9.41762 2.53553 8.08895 3.46301 7.61201L17.9766 0.14865Z"
            fill="white" />
        <path
            d="M1.92941 18.1328C0.993659 18.5923 -0.0758837 17.8398 0.00424446 16.7782L0.312306 12.6967C0.392434 11.6351 1.56214 11.0607 2.41777 11.6627L5.70734 13.9773C6.56298 14.5793 6.46282 15.9063 5.52706 16.3659L1.92941 18.1328Z"
            fill="white" />
        <path
            d="M8.78198 26.8141C7.85024 27.2823 6.77416 26.5397 6.845 25.4773L7.3628 17.7118C7.43363 16.6496 8.59826 16.0643 9.4591 16.6585L15.7521 21.0014C16.613 21.5956 16.5244 22.9235 15.5927 23.3916L8.78198 26.8141Z"
            fill="white" />
    </g>
    <defs>
        <clipPath id="clip0_742_31">
            <rect width="20" height="27" fill="white" />
        </clipPath>
    </defs>
</svg>
    