<svg width="72" height="95" viewBox="0 0 72 95" fill="none" xmlns="http://www.w3.org/2000/svg">
    <path
        d="M64.9498 0.52386C68.3009 -1.15693 72.2126 1.42441 71.991 5.17027L68.5232 63.7871C68.3016 67.533 64.1129 69.634 60.9835 67.5689L12.0132 35.2538C8.88379 33.1887 9.1608 28.5064 12.5118 26.8256L64.9498 0.52386Z"
        fill="white" />
    <path
        d="M6.97106 63.902C3.59012 65.5216 -0.27417 62.8696 0.0153354 59.1283L1.12837 44.7448C1.41788 41.0036 5.64405 38.9791 8.73548 41.1007L20.6208 49.2576C23.7123 51.3792 23.3504 56.0557 19.9695 57.6753L6.97106 63.902Z"
        fill="white" />
    <path
        d="M31.7292 94.496C28.363 96.1459 24.475 93.5288 24.731 89.7851L26.6018 62.4186C26.8578 58.6749 31.0656 56.6125 34.1759 58.7063L56.9128 74.0116C60.0231 76.1054 59.7032 80.7849 56.3369 82.4349L31.7292 94.496Z"
        fill="white" />
</svg>
    